<svg width="17" height="15" viewBox="0 0 17 15" fill="none" xmlns="http://www.w3.org/2000/svg">
<path d="M13.5 5.47942V3.22034V0.961254C13.5 0.872163 13.6077 0.828051 13.6707 0.891047L15.9293 3.14963C15.9683 3.18868 15.9683 3.25199 15.9293 3.29105L13.6707 5.54963C13.6077 5.61262 13.5 5.56851 13.5 5.47942Z" fill="#131718"/>
<path d="M1 12.2203C5 13.2203 9.5 1.22034 13.5 3.22034M13.5 3.22034C13.5 3.95903 13.5 5.01107 13.5 5.47942C13.5 5.56851 13.6077 5.61262 13.6707 5.54963L15.9293 3.29105C15.9683 3.25199 15.9683 3.18868 15.9293 3.14963L13.6707 0.891047C13.6077 0.828051 13.5 0.872163 13.5 0.961254C13.5 1.4296 13.5 2.48165 13.5 3.22034Z" stroke="#131718" stroke-linecap="round" stroke-linejoin="bevel"/>
<path d="M13.5 9.52058V11.7797V14.0387C13.5 14.1278 13.6077 14.1719 13.6707 14.109L15.9293 11.8504C15.9683 11.8113 15.9683 11.748 15.9293 11.709L13.6707 9.45037C13.6077 9.38738 13.5 9.43149 13.5 9.52058Z" fill="#131718"/>
<path d="M1 2.77966C5 1.77966 9.5 13.7797 13.5 11.7797M13.5 11.7797C13.5 11.041 13.5 9.98893 13.5 9.52058C13.5 9.43149 13.6077 9.38738 13.6707 9.45037L15.9293 11.709C15.9683 11.748 15.9683 11.8113 15.9293 11.8504L13.6707 14.109C13.6077 14.1719 13.5 14.1278 13.5 14.0387C13.5 13.5704 13.5 12.5184 13.5 11.7797Z" stroke="#131718" stroke-linecap="round" stroke-linejoin="bevel"/>
</svg>
